<svg xmlns="http://www.w3.org/2000/svg" viewBox="0 0 1000 300" width="100%" height="100%">
    <defs>
        <radialGradient id="bg" cx="50%" cy="50%" r="70%">
            <stop offset="0%" stop-color="#0a0a0c" />
            <stop offset="100%" stop-color="#000000" />
        </radialGradient>
        
        <style>
            /* Base traces: faint and elegant */
            .trace { fill: none; stroke: #27272a; stroke-width: 1.5; stroke-linecap: round; stroke-linejoin: round; }
            .node { fill: #000000; stroke: #27272a; stroke-width: 1.5; }
            
            @keyframes flow {
                0% { stroke-dashoffset: 800; }
                100% { stroke-dashoffset: -800; }
            }
            /* Data streaks: bright glowing blue */
            .data {
                fill: none; stroke: #0ea5e9; stroke-width: 2;
                stroke-dasharray: 40 400;
                stroke-linecap: round;
                animation: flow linear infinite;
            }
            .data-slow {
                fill: none; stroke: #6366f1; stroke-width: 2;
                stroke-dasharray: 30 500;
                stroke-linecap: round;
                animation: flow linear infinite;
            }
        </style>
    </defs>
    
    <!-- Background -->
    <rect width="1000" height="300" fill="url(#bg)" />
    
    <g>
        <path class="trace" d="M -10 30 H 100 L 150 80 H 300" />
        <circle class="node" cx="300" cy="80" r="3" />
        <path class="data-slow" d="M -10 30 H 100 L 150 80 H 300" style="animation-duration: 3.4s;" />
        <path class="trace" d="M -10 45 H 100 L 150 95 H 315" />
        <circle class="node" cx="315" cy="95" r="3" />
        <path class="trace" d="M -10 60 H 100 L 150 110 H 330" />
        <circle class="node" cx="330" cy="110" r="3" />
        <path class="data-slow" d="M -10 60 H 100 L 150 110 H 330" style="animation-duration: 3.5s;" />
        <path class="trace" d="M -10 75 H 100 L 150 125 H 345" />
        <circle class="node" cx="345" cy="125" r="3" />
        <path class="data" d="M -10 75 H 100 L 150 125 H 345" style="animation-duration: 4.1s;" />
        <path class="trace" d="M -10 130 H 160 L 200 90 H 290" />
        <circle class="node" cx="290" cy="90" r="3" />
        <path class="data" d="M -10 130 H 160 L 200 90 H 290" style="animation-duration: 3.8s;" />
        <path class="trace" d="M -10 145 H 160 L 200 105 H 275" />
        <circle class="node" cx="275" cy="105" r="3" />
        <path class="trace" d="M -10 160 H 160 L 200 120 H 260" />
        <circle class="node" cx="260" cy="120" r="3" />
        <path class="data-slow" d="M -10 160 H 160 L 200 120 H 260" style="animation-duration: 3.7s;" />
        <path class="trace" d="M -10 220 H 120 L 170 170 H 290" />
        <circle class="node" cx="290" cy="170" r="3" />
        <path class="data" d="M -10 220 H 120 L 170 170 H 290" style="animation-duration: 3.3s;" />
        <path class="trace" d="M -10 235 H 120 L 170 185 H 275" />
        <circle class="node" cx="275" cy="185" r="3" />
        <path class="data" d="M -10 235 H 120 L 170 185 H 275" style="animation-duration: 3.7s;" />
        <path class="trace" d="M -10 250 H 120 L 170 200 H 260" />
        <circle class="node" cx="260" cy="200" r="3" />
        <path class="data" d="M -10 250 H 120 L 170 200 H 260" style="animation-duration: 4.5s;" />
        <path class="trace" d="M -10 265 H 120 L 170 215 H 245" />
        <circle class="node" cx="245" cy="215" r="3" />
        <path class="data-slow" d="M -10 265 H 120 L 170 215 H 245" style="animation-duration: 3.5s;" />
        <path class="trace" d="M -10 260 H 60 L 90 230 H 270" />
        <circle class="node" cx="270" cy="230" r="3" />
        <path class="trace" d="M -10 275 H 60 L 90 245 H 255" />
        <circle class="node" cx="255" cy="245" r="3" />
        <path class="data" d="M -10 275 H 60 L 90 245 H 255" style="animation-duration: 4.1s;" />
        <path class="trace" d="M 1010 20 H 900 L 840 80 H 700" />
        <circle class="node" cx="700" cy="80" r="3" />
        <path class="data" d="M 1010 20 H 900 L 840 80 H 700" style="animation-duration: 4.2s;" />
        <path class="trace" d="M 1010 35 H 900 L 840 95 H 685" />
        <circle class="node" cx="685" cy="95" r="3" />
        <path class="data" d="M 1010 35 H 900 L 840 95 H 685" style="animation-duration: 3.4s;" />
        <path class="trace" d="M 1010 50 H 900 L 840 110 H 670" />
        <circle class="node" cx="670" cy="110" r="3" />
        <path class="trace" d="M 1010 100 H 850 L 800 150 H 690" />
        <circle class="node" cx="690" cy="150" r="3" />
        <path class="data" d="M 1010 100 H 850 L 800 150 H 690" style="animation-duration: 4.2s;" />
        <path class="trace" d="M 1010 115 H 850 L 800 165 H 675" />
        <circle class="node" cx="675" cy="165" r="3" />
        <path class="data-slow" d="M 1010 115 H 850 L 800 165 H 675" style="animation-duration: 4.3s;" />
        <path class="trace" d="M 1010 130 H 850 L 800 180 H 660" />
        <circle class="node" cx="660" cy="180" r="3" />
        <path class="trace" d="M 1010 145 H 850 L 800 195 H 645" />
        <circle class="node" cx="645" cy="195" r="3" />
        <path class="data-slow" d="M 1010 145 H 850 L 800 195 H 645" style="animation-duration: 4.6s;" />
        <path class="trace" d="M 1010 180 H 800 L 760 140 H 600" />
        <circle class="node" cx="600" cy="140" r="3" />
        <path class="data-slow" d="M 1010 180 H 800 L 760 140 H 600" style="animation-duration: 3.2s;" />
        <path class="trace" d="M 1010 195 H 800 L 760 155 H 615" />
        <circle class="node" cx="615" cy="155" r="3" />
        <path class="trace" d="M 1010 210 H 800 L 760 170 H 630" />
        <circle class="node" cx="630" cy="170" r="3" />
        <path class="data-slow" d="M 1010 210 H 800 L 760 170 H 630" style="animation-duration: 4.0s;" />
        <path class="trace" d="M 1010 240 H 880 L 830 190 H 730" />
        <circle class="node" cx="730" cy="190" r="3" />
        <path class="data-slow" d="M 1010 240 H 880 L 830 190 H 730" style="animation-duration: 3.1s;" />
        <path class="trace" d="M 1010 255 H 880 L 830 205 H 745" />
        <circle class="node" cx="745" cy="205" r="3" />
        <path class="trace" d="M 1010 270 H 880 L 830 220 H 760" />
        <circle class="node" cx="760" cy="220" r="3" />
        <path class="data-slow" d="M 1010 270 H 880 L 830 220 H 760" style="animation-duration: 4.5s;" />
        <path class="trace" d="M 1010 285 H 880 L 830 235 H 775" />
        <circle class="node" cx="775" cy="235" r="3" />
        <path class="data-slow" d="M 1010 285 H 880 L 830 235 H 775" style="animation-duration: 4.8s;" />
        <path class="trace" d="M -10 110 H 260" />
        <circle class="node" cx="260" cy="110" r="3" />
        <path class="data" d="M -10 110 H 260" style="animation-duration: 4.2s;" />
        <path class="trace" d="M -10 190 H 320" />
        <circle class="node" cx="320" cy="190" r="3" />
        <path class="data-slow" d="M -10 190 H 320" style="animation-duration: 3.8s;" />
        <path class="trace" d="M 1010 160 H 700" />
        <circle class="node" cx="700" cy="160" r="3" />
        <path class="trace" d="M 1010 220 H 750" />
        <circle class="node" cx="750" cy="220" r="3" />

    </g>
    
    <g transform="translate(500, 145)">
        <text x="0" y="-5" font-family="-apple-system, BlinkMacSystemFont, 'Inter', 'Segoe UI', Roboto, sans-serif" font-size="44" font-weight="900" fill="#ffffff" text-anchor="middle" letter-spacing="6">SIHAN UDAYARATNA</text>
        <text x="0" y="32" font-family="-apple-system, BlinkMacSystemFont, 'Inter', 'Segoe UI', Roboto, sans-serif" font-size="13" font-weight="600" fill="#a1a1aa" text-anchor="middle" letter-spacing="10">AI &amp; MACHINE LEARNING ENGINEER</text>
    </g>
</svg>
