<svg xmlns="http://www.w3.org/2000/svg" viewBox="0 0 1000 300" width="100%" height="100%">
    <defs>
        <radialGradient id="bg" cx="50%" cy="50%" r="70%">
            <stop offset="0%" stop-color="#142850" />
            <stop offset="100%" stop-color="#0a1128" />
        </radialGradient>
        <style>
            .trace { fill: none; stroke: #00f0ff; stroke-width: 4; stroke-linecap: round; stroke-linejoin: round; }
            .node { fill: #0a1128; stroke: #00f0ff; stroke-width: 4; }
            
            @keyframes flow {
                to { stroke-dashoffset: -1000; }
            }
            .data {
                fill: none; stroke: #ffffff; stroke-width: 4;
                stroke-dasharray: 8 180;
                stroke-linecap: round;
                animation: flow linear infinite;
            }
        </style>
    </defs>
    <rect width="1000" height="300" fill="url(#bg)" />
    
    <!-- No SVG filters here so GitHub Camo doesn't break it! -->
    <g>
        <path class="trace" d="M -10 20 H 160 L 220 80 H 348" />
        <circle class="node" cx="348" cy="80" r="5.5" />
        <path class="trace" d="M -10 32 H 148 L 208 92 H 332" />
        <circle class="node" cx="332" cy="92" r="5.5" />
        <path class="trace" d="M -10 44 H 136 L 196 104 H 319" />
        <circle class="node" cx="319" cy="104" r="5.5" />
        <path class="trace" d="M -10 56 H 124 L 184 116 H 321" />
        <circle class="node" cx="321" cy="116" r="5.5" />
        <path class="trace" d="M -10 68 H 112 L 172 128 H 305" />
        <circle class="node" cx="305" cy="128" r="5.5" />
        <path class="data" d="M -10 68 H 112 L 172 128 H 305" style="animation-duration: 2.6s;" />
        <path class="trace" d="M -10 80 H 100 L 160 140 H 290" />
        <circle class="node" cx="290" cy="140" r="5.5" />
        <path class="trace" d="M -10 140 H 180 L 230 90 H 330" />
        <circle class="node" cx="330" cy="90" r="5.5" />
        <path class="trace" d="M -10 152 H 192 L 242 102 H 342" />
        <circle class="node" cx="342" cy="102" r="5.5" />
        <path class="data" d="M -10 152 H 192 L 242 102 H 342" style="animation-duration: 2.8s;" />
        <path class="trace" d="M -10 164 H 204 L 254 114 H 353" />
        <circle class="node" cx="353" cy="114" r="5.5" />
        <path class="trace" d="M -10 176 H 216 L 266 126 H 378" />
        <circle class="node" cx="378" cy="126" r="5.5" />
        <path class="trace" d="M -10 188 H 228 L 278 138 H 395" />
        <circle class="node" cx="395" cy="138" r="5.5" />
        <path class="trace" d="M -10 230 H 110 L 180 160 H 366" />
        <circle class="node" cx="366" cy="160" r="5.5" />
        <path class="trace" d="M -10 242 H 122 L 192 172 H 353" />
        <circle class="node" cx="353" cy="172" r="5.5" />
        <path class="trace" d="M -10 254 H 134 L 204 184 H 377" />
        <circle class="node" cx="377" cy="184" r="5.5" />
        <path class="trace" d="M -10 266 H 146 L 216 196 H 404" />
        <circle class="node" cx="404" cy="196" r="5.5" />
        <path class="trace" d="M -10 278 H 158 L 228 208 H 397" />
        <circle class="node" cx="397" cy="208" r="5.5" />
        <path class="trace" d="M -10 -10 H 250 L 290 30 H 366" />
        <circle class="node" cx="366" cy="30" r="5.5" />
        <path class="trace" d="M -10 2 H 238 L 278 42 H 363" />
        <circle class="node" cx="363" cy="42" r="5.5" />
        <path class="trace" d="M -10 14 H 226 L 266 54 H 350" />
        <circle class="node" cx="350" cy="54" r="5.5" />
        <path class="data" d="M -10 14 H 226 L 266 54 H 350" style="animation-duration: 2.7s;" />
        <path class="trace" d="M 1010 10 H 840 L 770 80 H 653" />
        <circle class="node" cx="653" cy="80" r="5.5" />
        <path class="trace" d="M 1010 22 H 852 L 782 92 H 665" />
        <circle class="node" cx="665" cy="92" r="5.5" />
        <path class="data" d="M 1010 22 H 852 L 782 92 H 665" style="animation-duration: 2.5s;" />
        <path class="trace" d="M 1010 34 H 864 L 794 104 H 686" />
        <circle class="node" cx="686" cy="104" r="5.5" />
        <path class="data" d="M 1010 34 H 864 L 794 104 H 686" style="animation-duration: 3.6s;" />
        <path class="trace" d="M 1010 46 H 876 L 806 116 H 680" />
        <circle class="node" cx="680" cy="116" r="5.5" />
        <path class="trace" d="M 1010 58 H 888 L 818 128 H 696" />
        <circle class="node" cx="696" cy="128" r="5.5" />
        <path class="data" d="M 1010 58 H 888 L 818 128 H 696" style="animation-duration: 4.0s;" />
        <path class="trace" d="M 1010 120 H 820 L 780 80 H 633" />
        <circle class="node" cx="633" cy="80" r="5.5" />
        <path class="trace" d="M 1010 132 H 808 L 768 92 H 627" />
        <circle class="node" cx="627" cy="92" r="5.5" />
        <path class="data" d="M 1010 132 H 808 L 768 92 H 627" style="animation-duration: 2.9s;" />
        <path class="trace" d="M 1010 144 H 796 L 756 104 H 597" />
        <circle class="node" cx="597" cy="104" r="5.5" />
        <path class="trace" d="M 1010 156 H 784 L 744 116 H 593" />
        <circle class="node" cx="593" cy="116" r="5.5" />
        <path class="trace" d="M 1010 168 H 772 L 732 128 H 597" />
        <circle class="node" cx="597" cy="128" r="5.5" />
        <path class="data" d="M 1010 168 H 772 L 732 128 H 597" style="animation-duration: 3.1s;" />
        <path class="trace" d="M 1010 180 H 760 L 720 140 H 565" />
        <circle class="node" cx="565" cy="140" r="5.5" />
        <path class="trace" d="M 1010 192 H 748 L 708 152 H 563" />
        <circle class="node" cx="563" cy="152" r="5.5" />
        <path class="data" d="M 1010 192 H 748 L 708 152 H 563" style="animation-duration: 3.5s;" />
        <path class="trace" d="M 1010 220 H 910 L 860 170 H 734" />
        <circle class="node" cx="734" cy="170" r="5.5" />
        <path class="trace" d="M 1010 232 H 898 L 848 182 H 728" />
        <circle class="node" cx="728" cy="182" r="5.5" />
        <path class="trace" d="M 1010 244 H 886 L 836 194 H 697" />
        <circle class="node" cx="697" cy="194" r="5.5" />
        <path class="trace" d="M 1010 256 H 874 L 824 206 H 700" />
        <circle class="node" cx="700" cy="206" r="5.5" />
        <path class="data" d="M 1010 256 H 874 L 824 206 H 700" style="animation-duration: 3.5s;" />
        <path class="trace" d="M 1010 268 H 862 L 812 218 H 700" />
        <circle class="node" cx="700" cy="218" r="5.5" />
        <path class="trace" d="M 1010 280 H 850 L 800 230 H 663" />
        <circle class="node" cx="663" cy="230" r="5.5" />
        <path class="trace" d="M 1010 -20 H 750 L 690 40 H 616" />
        <circle class="node" cx="616" cy="40" r="5.5" />
        <path class="trace" d="M 1010 -8 H 762 L 702 52 H 613" />
        <circle class="node" cx="613" cy="52" r="5.5" />
        <path class="data" d="M 1010 -8 H 762 L 702 52 H 613" style="animation-duration: 2.9s;" />
        <path class="trace" d="M 1010 4 H 774 L 714 64 H 624" />
        <circle class="node" cx="624" cy="64" r="5.5" />
        <path class="data" d="M 1010 4 H 774 L 714 64 H 624" style="animation-duration: 4.3s;" />
        <path class="trace" d="M -10 110 H 352" />
        <circle class="node" cx="352" cy="110" r="5.5" />
        <path class="trace" d="M -10 122 H 351" />
        <circle class="node" cx="351" cy="122" r="5.5" />
        <path class="trace" d="M -10 134 H 356" />
        <circle class="node" cx="356" cy="134" r="5.5" />
        <path class="trace" d="M 1010 170 H 607" />
        <circle class="node" cx="607" cy="170" r="5.5" />
        <path class="trace" d="M 1010 182 H 624" />
        <circle class="node" cx="624" cy="182" r="5.5" />
        <path class="trace" d="M 1010 194 H 647" />
        <circle class="node" cx="647" cy="194" r="5.5" />

    </g>
    
    <!-- Dark overlay behind text so it's readable -->
    <rect x="230" y="100" width="540" height="100" fill="#0a1128" opacity="0.9" rx="8" />
    
    <g transform="translate(500, 145)">
        <text x="0" y="-5" font-family="-apple-system, BlinkMacSystemFont, 'Segoe UI', Roboto, sans-serif" font-size="44" font-weight="900" fill="#ffffff" text-anchor="middle" letter-spacing="4">SIHAN UDAYARATNA</text>
        <text x="0" y="28" font-family="-apple-system, BlinkMacSystemFont, 'Segoe UI', Roboto, sans-serif" font-size="14" font-weight="600" fill="#00f0ff" text-anchor="middle" letter-spacing="8">AI &amp; MACHINE LEARNING ENGINEER</text>
    </g>
</svg>
